<mxfile host="app.diagrams.net" modified="2022-06-27T07:13:18.643Z" agent="5.0 (Windows NT 10.0; Win64; x64) AppleWebKit/537.36 (KHTML, like Gecko) Chrome/101.0.0.0 Safari/537.36" etag="5BMQRp6A7KF1W1r9uoXw" version="16.4.11" type="github">
  <diagram id="C5RBs43oDa-KdzZeNtuy" name="Page-1">
    <mxGraphModel dx="1422" dy="762" grid="1" gridSize="10" guides="1" tooltips="1" connect="1" arrows="1" fold="1" page="1" pageScale="1" pageWidth="827" pageHeight="1169" math="0" shadow="0">
      <root>
        <mxCell id="WIyWlLk6GJQsqaUBKTNV-0" />
        <mxCell id="WIyWlLk6GJQsqaUBKTNV-1" parent="WIyWlLk6GJQsqaUBKTNV-0" />
        <mxCell id="HVooJQYuQ1VPeov1bg4N-0" value="Annex I GSPRs" style="rounded=1;whiteSpace=wrap;html=1;fontSize=12;glass=0;strokeWidth=1;shadow=0;fillColor=#a20025;fontColor=#ffffff;strokeColor=#6F0000;" vertex="1" parent="WIyWlLk6GJQsqaUBKTNV-1">
          <mxGeometry x="330" y="60" width="120" height="40" as="geometry" />
        </mxCell>
        <mxCell id="HVooJQYuQ1VPeov1bg4N-1" value="Annex II Tech Doc" style="rounded=1;whiteSpace=wrap;html=1;fontSize=12;glass=0;strokeWidth=1;shadow=0;fillColor=#a20025;fontColor=#ffffff;strokeColor=#6F0000;" vertex="1" parent="WIyWlLk6GJQsqaUBKTNV-1">
          <mxGeometry x="330" y="100" width="120" height="40" as="geometry" />
        </mxCell>
        <mxCell id="HVooJQYuQ1VPeov1bg4N-2" value="Annex III TD PMS" style="rounded=1;whiteSpace=wrap;html=1;fontSize=12;glass=0;strokeWidth=1;shadow=0;fillColor=#a20025;fontColor=#ffffff;strokeColor=#6F0000;" vertex="1" parent="WIyWlLk6GJQsqaUBKTNV-1">
          <mxGeometry x="330" y="140" width="120" height="40" as="geometry" />
        </mxCell>
        <mxCell id="HVooJQYuQ1VPeov1bg4N-16" style="edgeStyle=orthogonalEdgeStyle;rounded=0;orthogonalLoop=1;jettySize=auto;html=1;fontSize=14;" edge="1" parent="WIyWlLk6GJQsqaUBKTNV-1" source="HVooJQYuQ1VPeov1bg4N-3" target="HVooJQYuQ1VPeov1bg4N-15">
          <mxGeometry relative="1" as="geometry" />
        </mxCell>
        <mxCell id="HVooJQYuQ1VPeov1bg4N-3" value="Annex IX , QMS SYSTEM (AUDIT)&lt;br&gt;including&amp;nbsp;&lt;br&gt;Chapter II&lt;br&gt;Assessment of TD&lt;br&gt;(A,B, C) + Audit + TD assessment of below per&amp;nbsp;" style="whiteSpace=wrap;html=1;aspect=fixed;fillColor=#a20025;strokeColor=#6F0000;fontColor=#ffffff;" vertex="1" parent="WIyWlLk6GJQsqaUBKTNV-1">
          <mxGeometry x="50" y="325" width="260" height="260" as="geometry" />
        </mxCell>
        <mxCell id="HVooJQYuQ1VPeov1bg4N-40" style="edgeStyle=orthogonalEdgeStyle;rounded=0;orthogonalLoop=1;jettySize=auto;html=1;entryX=0.5;entryY=0;entryDx=0;entryDy=0;fontSize=14;startArrow=none;" edge="1" parent="WIyWlLk6GJQsqaUBKTNV-1" source="HVooJQYuQ1VPeov1bg4N-46" target="HVooJQYuQ1VPeov1bg4N-38">
          <mxGeometry relative="1" as="geometry" />
        </mxCell>
        <mxCell id="HVooJQYuQ1VPeov1bg4N-4" value="Annex IX, QMS without Chapter II, Chapter &lt;br&gt;following sampling plan (NSAI specific)&lt;br&gt;&lt;br&gt;Audit + A, B, C . but no product verification per annex 7&amp;nbsp;&lt;br&gt;Some IIb types include product verification verify in annex ix&amp;nbsp;" style="whiteSpace=wrap;html=1;aspect=fixed;fillColor=#a20025;fontColor=#ffffff;strokeColor=#6F0000;" vertex="1" parent="WIyWlLk6GJQsqaUBKTNV-1">
          <mxGeometry x="500" y="325" width="260" height="260" as="geometry" />
        </mxCell>
        <mxCell id="HVooJQYuQ1VPeov1bg4N-6" value="" style="endArrow=none;html=1;rounded=0;" edge="1" parent="WIyWlLk6GJQsqaUBKTNV-1">
          <mxGeometry width="50" height="50" relative="1" as="geometry">
            <mxPoint x="390" y="240" as="sourcePoint" />
            <mxPoint x="390" y="180" as="targetPoint" />
          </mxGeometry>
        </mxCell>
        <mxCell id="HVooJQYuQ1VPeov1bg4N-8" value="" style="endArrow=none;html=1;rounded=0;" edge="1" parent="WIyWlLk6GJQsqaUBKTNV-1">
          <mxGeometry width="50" height="50" relative="1" as="geometry">
            <mxPoint x="180" y="240" as="sourcePoint" />
            <mxPoint x="390" y="240" as="targetPoint" />
          </mxGeometry>
        </mxCell>
        <mxCell id="HVooJQYuQ1VPeov1bg4N-9" value="" style="endArrow=none;html=1;rounded=0;" edge="1" parent="WIyWlLk6GJQsqaUBKTNV-1">
          <mxGeometry width="50" height="50" relative="1" as="geometry">
            <mxPoint x="390" y="240" as="sourcePoint" />
            <mxPoint x="630" y="240" as="targetPoint" />
          </mxGeometry>
        </mxCell>
        <mxCell id="HVooJQYuQ1VPeov1bg4N-10" value="" style="endArrow=classic;html=1;rounded=0;" edge="1" parent="WIyWlLk6GJQsqaUBKTNV-1">
          <mxGeometry width="50" height="50" relative="1" as="geometry">
            <mxPoint x="179.5" y="240" as="sourcePoint" />
            <mxPoint x="179.5" y="320" as="targetPoint" />
          </mxGeometry>
        </mxCell>
        <mxCell id="HVooJQYuQ1VPeov1bg4N-11" value="" style="endArrow=classic;html=1;rounded=0;" edge="1" parent="WIyWlLk6GJQsqaUBKTNV-1">
          <mxGeometry width="50" height="50" relative="1" as="geometry">
            <mxPoint x="630" y="240" as="sourcePoint" />
            <mxPoint x="630" y="320" as="targetPoint" />
          </mxGeometry>
        </mxCell>
        <mxCell id="HVooJQYuQ1VPeov1bg4N-13" value="&lt;font style=&quot;font-size: 14px&quot;&gt;IIa, IIb, Is, Irsi&lt;/font&gt;" style="text;html=1;align=center;verticalAlign=middle;resizable=0;points=[];autosize=1;strokeColor=#b85450;fillColor=#f8cecc;" vertex="1" parent="WIyWlLk6GJQsqaUBKTNV-1">
          <mxGeometry x="500" y="220" width="100" height="20" as="geometry" />
        </mxCell>
        <mxCell id="HVooJQYuQ1VPeov1bg4N-14" value="III, IIb Implantable" style="text;html=1;align=center;verticalAlign=middle;resizable=0;points=[];autosize=1;strokeColor=#b85450;fillColor=#f8cecc;fontSize=14;" vertex="1" parent="WIyWlLk6GJQsqaUBKTNV-1">
          <mxGeometry x="165" y="220" width="130" height="20" as="geometry" />
        </mxCell>
        <mxCell id="HVooJQYuQ1VPeov1bg4N-17" style="edgeStyle=orthogonalEdgeStyle;rounded=0;orthogonalLoop=1;jettySize=auto;html=1;fontSize=14;" edge="1" parent="WIyWlLk6GJQsqaUBKTNV-1" source="HVooJQYuQ1VPeov1bg4N-15" target="HVooJQYuQ1VPeov1bg4N-18">
          <mxGeometry relative="1" as="geometry">
            <mxPoint x="180" y="810" as="targetPoint" />
          </mxGeometry>
        </mxCell>
        <mxCell id="HVooJQYuQ1VPeov1bg4N-15" value="Specific procedure" style="rhombus;whiteSpace=wrap;html=1;fontSize=14;fillColor=#a20025;fontColor=#ffffff;strokeColor=#6F0000;" vertex="1" parent="WIyWlLk6GJQsqaUBKTNV-1">
          <mxGeometry x="135" y="660" width="90" height="80" as="geometry" />
        </mxCell>
        <mxCell id="HVooJQYuQ1VPeov1bg4N-36" value="" style="edgeStyle=orthogonalEdgeStyle;rounded=0;orthogonalLoop=1;jettySize=auto;html=1;fontSize=14;" edge="1" parent="WIyWlLk6GJQsqaUBKTNV-1" source="HVooJQYuQ1VPeov1bg4N-18" target="HVooJQYuQ1VPeov1bg4N-35">
          <mxGeometry relative="1" as="geometry" />
        </mxCell>
        <mxCell id="HVooJQYuQ1VPeov1bg4N-18" value="Annex IX (5)&lt;br&gt;eg med substances" style="rounded=0;whiteSpace=wrap;html=1;fontSize=14;fillColor=#a20025;fontColor=#ffffff;strokeColor=#6F0000;" vertex="1" parent="WIyWlLk6GJQsqaUBKTNV-1">
          <mxGeometry x="120" y="810" width="120" height="60" as="geometry" />
        </mxCell>
        <mxCell id="HVooJQYuQ1VPeov1bg4N-19" value="&lt;br&gt;Annex 7&lt;br&gt;&lt;span style=&quot;color: rgb(0 , 0 , 0) ; font-family: &amp;#34;times new roman&amp;#34; ; font-size: 16px ; font-style: normal ; font-weight: 700 ; letter-spacing: normal ; text-align: justify ; text-indent: 0px ; text-transform: none ; word-spacing: 0px ; background-color: rgb(255 , 255 , 255) ; display: inline ; float: none&quot;&gt;4.5.3.&amp;nbsp;&amp;nbsp;&amp;nbsp;Product verification&amp;nbsp;&lt;/span&gt;&lt;br&gt;" style="rounded=0;whiteSpace=wrap;html=1;fontSize=14;" vertex="1" parent="WIyWlLk6GJQsqaUBKTNV-1">
          <mxGeometry x="110" y="500" width="120" height="60" as="geometry" />
        </mxCell>
        <mxCell id="HVooJQYuQ1VPeov1bg4N-20" value="A" style="text;html=1;align=center;verticalAlign=middle;resizable=0;points=[];autosize=1;strokeColor=none;fillColor=none;fontSize=14;" vertex="1" parent="WIyWlLk6GJQsqaUBKTNV-1">
          <mxGeometry x="280" y="70" width="20" height="20" as="geometry" />
        </mxCell>
        <mxCell id="HVooJQYuQ1VPeov1bg4N-21" value="B" style="text;html=1;align=center;verticalAlign=middle;resizable=0;points=[];autosize=1;strokeColor=none;fillColor=none;fontSize=14;" vertex="1" parent="WIyWlLk6GJQsqaUBKTNV-1">
          <mxGeometry x="280" y="110" width="20" height="20" as="geometry" />
        </mxCell>
        <mxCell id="HVooJQYuQ1VPeov1bg4N-23" value="C" style="text;html=1;align=center;verticalAlign=middle;resizable=0;points=[];autosize=1;strokeColor=none;fillColor=none;fontSize=14;" vertex="1" parent="WIyWlLk6GJQsqaUBKTNV-1">
          <mxGeometry x="275" y="150" width="30" height="20" as="geometry" />
        </mxCell>
        <mxCell id="HVooJQYuQ1VPeov1bg4N-27" value="Yes" style="text;html=1;align=center;verticalAlign=middle;resizable=0;points=[];autosize=1;strokeColor=none;fillColor=none;fontSize=14;" vertex="1" parent="WIyWlLk6GJQsqaUBKTNV-1">
          <mxGeometry x="140" y="740" width="40" height="20" as="geometry" />
        </mxCell>
        <mxCell id="HVooJQYuQ1VPeov1bg4N-39" value="" style="edgeStyle=orthogonalEdgeStyle;rounded=0;orthogonalLoop=1;jettySize=auto;html=1;fontSize=14;" edge="1" parent="WIyWlLk6GJQsqaUBKTNV-1" source="HVooJQYuQ1VPeov1bg4N-28" target="HVooJQYuQ1VPeov1bg4N-38">
          <mxGeometry relative="1" as="geometry">
            <Array as="points">
              <mxPoint x="230" y="700" />
              <mxPoint x="230" y="700" />
            </Array>
          </mxGeometry>
        </mxCell>
        <mxCell id="HVooJQYuQ1VPeov1bg4N-28" value="No" style="text;html=1;align=center;verticalAlign=middle;resizable=0;points=[];autosize=1;strokeColor=none;fillColor=none;fontSize=14;" vertex="1" parent="WIyWlLk6GJQsqaUBKTNV-1">
          <mxGeometry x="225" y="680" width="30" height="20" as="geometry" />
        </mxCell>
        <mxCell id="HVooJQYuQ1VPeov1bg4N-29" value="Client needs to provide  &amp; NSAI review" style="swimlane;fontStyle=0;childLayout=stackLayout;horizontal=1;startSize=30;horizontalStack=0;resizeParent=1;resizeParentMax=0;resizeLast=0;collapsible=1;marginBottom=0;fontSize=14;" vertex="1" parent="WIyWlLk6GJQsqaUBKTNV-1">
          <mxGeometry x="30" y="1090" width="480" height="120" as="geometry" />
        </mxCell>
        <mxCell id="HVooJQYuQ1VPeov1bg4N-30" value="(A) GSPR evidence &amp; selection of appropriate GSPRS" style="text;strokeColor=none;fillColor=none;align=left;verticalAlign=middle;spacingLeft=4;spacingRight=4;overflow=hidden;points=[[0,0.5],[1,0.5]];portConstraint=eastwest;rotatable=0;fontSize=14;" vertex="1" parent="HVooJQYuQ1VPeov1bg4N-29">
          <mxGeometry y="30" width="480" height="30" as="geometry" />
        </mxCell>
        <mxCell id="HVooJQYuQ1VPeov1bg4N-31" value="(B) TD aligned to ANNEX II including evidence from annex 1" style="text;strokeColor=none;fillColor=none;align=left;verticalAlign=middle;spacingLeft=4;spacingRight=4;overflow=hidden;points=[[0,0.5],[1,0.5]];portConstraint=eastwest;rotatable=0;fontSize=14;" vertex="1" parent="HVooJQYuQ1VPeov1bg4N-29">
          <mxGeometry y="60" width="480" height="30" as="geometry" />
        </mxCell>
        <mxCell id="HVooJQYuQ1VPeov1bg4N-32" value="(C) PMS in TD" style="text;strokeColor=none;fillColor=none;align=left;verticalAlign=middle;spacingLeft=4;spacingRight=4;overflow=hidden;points=[[0,0.5],[1,0.5]];portConstraint=eastwest;rotatable=0;fontSize=14;" vertex="1" parent="HVooJQYuQ1VPeov1bg4N-29">
          <mxGeometry y="90" width="480" height="30" as="geometry" />
        </mxCell>
        <mxCell id="HVooJQYuQ1VPeov1bg4N-37" style="edgeStyle=orthogonalEdgeStyle;rounded=0;orthogonalLoop=1;jettySize=auto;html=1;fontSize=14;startArrow=none;" edge="1" parent="WIyWlLk6GJQsqaUBKTNV-1" source="HVooJQYuQ1VPeov1bg4N-44">
          <mxGeometry relative="1" as="geometry">
            <mxPoint x="400" y="730" as="targetPoint" />
          </mxGeometry>
        </mxCell>
        <mxCell id="HVooJQYuQ1VPeov1bg4N-35" value="Extra class III requirements external panel etc&amp;nbsp;" style="whiteSpace=wrap;html=1;fontSize=14;fillColor=#a20025;strokeColor=#6F0000;fontColor=#ffffff;rounded=0;" vertex="1" parent="WIyWlLk6GJQsqaUBKTNV-1">
          <mxGeometry x="120" y="950" width="120" height="60" as="geometry" />
        </mxCell>
        <mxCell id="HVooJQYuQ1VPeov1bg4N-43" value="" style="edgeStyle=orthogonalEdgeStyle;rounded=0;orthogonalLoop=1;jettySize=auto;html=1;fontSize=14;" edge="1" parent="WIyWlLk6GJQsqaUBKTNV-1" source="HVooJQYuQ1VPeov1bg4N-38" target="HVooJQYuQ1VPeov1bg4N-42">
          <mxGeometry relative="1" as="geometry" />
        </mxCell>
        <mxCell id="HVooJQYuQ1VPeov1bg4N-38" value="CE Mark&lt;br&gt;CE 0050" style="whiteSpace=wrap;html=1;fontSize=14;fillColor=#fff2cc;strokeColor=#d6b656;" vertex="1" parent="WIyWlLk6GJQsqaUBKTNV-1">
          <mxGeometry x="340" y="670" width="120" height="60" as="geometry" />
        </mxCell>
        <mxCell id="HVooJQYuQ1VPeov1bg4N-42" value="DOC Per Annex&amp;nbsp; IV" style="whiteSpace=wrap;html=1;fontSize=14;fillColor=#fff2cc;strokeColor=#d6b656;" vertex="1" parent="WIyWlLk6GJQsqaUBKTNV-1">
          <mxGeometry x="540" y="670" width="120" height="60" as="geometry" />
        </mxCell>
        <mxCell id="HVooJQYuQ1VPeov1bg4N-44" value="TRC approval NSAI&amp;nbsp;" style="rounded=1;whiteSpace=wrap;html=1;fontSize=14;fillColor=#ffe6cc;strokeColor=#d79b00;" vertex="1" parent="WIyWlLk6GJQsqaUBKTNV-1">
          <mxGeometry x="340" y="830" width="120" height="60" as="geometry" />
        </mxCell>
        <mxCell id="HVooJQYuQ1VPeov1bg4N-45" value="" style="edgeStyle=orthogonalEdgeStyle;rounded=0;orthogonalLoop=1;jettySize=auto;html=1;fontSize=14;endArrow=none;" edge="1" parent="WIyWlLk6GJQsqaUBKTNV-1" source="HVooJQYuQ1VPeov1bg4N-35" target="HVooJQYuQ1VPeov1bg4N-44">
          <mxGeometry relative="1" as="geometry">
            <mxPoint x="400" y="730" as="targetPoint" />
            <mxPoint x="240" y="980" as="sourcePoint" />
          </mxGeometry>
        </mxCell>
        <mxCell id="HVooJQYuQ1VPeov1bg4N-46" value="TRC approval NSAI&amp;nbsp;" style="rounded=1;whiteSpace=wrap;html=1;fontSize=14;fillColor=#ffe6cc;strokeColor=#d79b00;" vertex="1" parent="WIyWlLk6GJQsqaUBKTNV-1">
          <mxGeometry x="340" y="525" width="120" height="60" as="geometry" />
        </mxCell>
        <mxCell id="HVooJQYuQ1VPeov1bg4N-47" value="" style="edgeStyle=orthogonalEdgeStyle;rounded=0;orthogonalLoop=1;jettySize=auto;html=1;entryX=0.5;entryY=0;entryDx=0;entryDy=0;fontSize=14;endArrow=none;" edge="1" parent="WIyWlLk6GJQsqaUBKTNV-1" source="HVooJQYuQ1VPeov1bg4N-4" target="HVooJQYuQ1VPeov1bg4N-46">
          <mxGeometry relative="1" as="geometry">
            <mxPoint x="500" y="455" as="sourcePoint" />
            <mxPoint x="400" y="670" as="targetPoint" />
          </mxGeometry>
        </mxCell>
        <mxCell id="HVooJQYuQ1VPeov1bg4N-49" style="edgeStyle=orthogonalEdgeStyle;rounded=0;orthogonalLoop=1;jettySize=auto;html=1;fontSize=14;" edge="1" parent="WIyWlLk6GJQsqaUBKTNV-1" source="HVooJQYuQ1VPeov1bg4N-48" target="HVooJQYuQ1VPeov1bg4N-50">
          <mxGeometry relative="1" as="geometry">
            <mxPoint x="580" y="120" as="targetPoint" />
          </mxGeometry>
        </mxCell>
        <mxCell id="HVooJQYuQ1VPeov1bg4N-48" value="" style="shape=curlyBracket;whiteSpace=wrap;html=1;rounded=1;flipH=1;fontSize=14;" vertex="1" parent="WIyWlLk6GJQsqaUBKTNV-1">
          <mxGeometry x="470" y="60" width="20" height="120" as="geometry" />
        </mxCell>
        <mxCell id="HVooJQYuQ1VPeov1bg4N-50" value="Technical File" style="swimlane;fontSize=14;" vertex="1" parent="WIyWlLk6GJQsqaUBKTNV-1">
          <mxGeometry x="580" y="30" width="205" height="180" as="geometry" />
        </mxCell>
        <mxCell id="HVooJQYuQ1VPeov1bg4N-51" value="&lt;br&gt;The Technical file contains&lt;br&gt;&amp;nbsp;all the &lt;br&gt;objective evidence&lt;br&gt;&amp;nbsp;to meet Annex II &lt;br&gt;requirements which in turn&lt;br&gt;are used to fulfill Annex I&lt;br&gt;GSPRS and Evidence of PMS&amp;nbsp;" style="text;html=1;align=center;verticalAlign=middle;resizable=0;points=[];autosize=1;strokeColor=none;fillColor=none;fontSize=14;" vertex="1" parent="HVooJQYuQ1VPeov1bg4N-50">
          <mxGeometry x="-5" y="10" width="210" height="140" as="geometry" />
        </mxCell>
      </root>
    </mxGraphModel>
  </diagram>
</mxfile>
